<?xml version="1.0" encoding="utf-8"?>
<svg viewBox="0 0 213.586 213.745" xmlns="http://www.w3.org/2000/svg">
  <path d="M 213.586 106.793 C 213.586 189.002 124.592 240.383 53.397 199.278 C -17.799 158.174 -17.799 55.412 53.397 14.307 C 69.631 4.934 88.047 0 106.793 0 C 165.774 -0.003 213.589 47.812 213.586 106.793" fill="#ff5850" transform="matrix(1, 0, 0, 1, 2.842170943040401e-14, 0)"/>
  <path d="M 108.592 66.766 L 136.231 134.974 L 94.486 102.094 L 108.592 66.766 Z M 157.688 150.688 L 115.178 48.387 C 114.175 45.628 111.527 43.813 108.592 43.873 C 105.612 43.806 102.908 45.61 101.827 48.387 L 55.17 160.599 L 71.131 160.599 L 89.599 114.331 L 144.716 158.861 C 146.935 160.654 148.532 161.465 150.613 161.465 C 154.895 161.566 158.42 158.12 158.416 153.837 C 158.344 152.755 158.098 151.692 157.688 150.688" fill="#fff" transform="matrix(1, 0, 0, 1, 2.842170943040401e-14, 0)"/>
</svg>